<svg xmlns="http://www.w3.org/2000/svg" xml:space="preserve" id="Layer_1" x="0" y="0" version="1.1" viewBox="0 0 1100 400"><style>.st1{fill:#b21c17}</style><path d="M-.45-4.7h1100.91v409.4H-.45z" style="fill:#e21617"/><path d="m156.65 326.41 34.42 21.51V400H82.86v-45.54l40.85-28.05zM213.21 383.93l6.43 4.9-6.58 5.24V400h-11.59v-5.82zM595.51 206.1s-5.82 30.31-13.74 36.63c-2.92 2.33-15 2.24-15 2.24s-5.34 93.53.88 123.74c1.01 4.93 4.05 13.43 6.09 17.62 1.63 3.36 7.24 12.56 7.93 13.67h-60.85c.69-1.11 6.34-10.32 8.02-13.67 2.09-4.17 5.4-12.84 6.1-17.62 4.23-29.77.8-123.74.8-123.74s-11.97.04-14.98-2.26c-8.14-6.26-13.7-36.61-13.7-36.61s11.93-5.38 15.34-8.73c1.43-1.4 3.34-8.22 3.34-8.22h13.5l.08-10.98h6.69l5.27-114.81 5.29 114.81 6.69-.08.08 11.06h13.5s2.16 6.77 3.35 8.22c2.58 3.2 15.32 8.73 15.32 8.73M837.87 347.66l93.11-.61V400h-276v-52.95l94.96.61.07-30.86 8.39-24.2 9.85 24.2v30.86l25.42-30.86 25.96 30.86V316.8l8.39-24.2 9.85 24.2z" class="st1"/><path d="M550.48 398.38h1.62V400h-1.62zM1085.68 333.92c0 1.31-1.06 2.56-3 3.71V400h-85.24v-62.37c-1.94-1.15-3-2.4-3-3.71 0-5.75 20.43-10.4 45.62-10.4s45.62 4.65 45.62 10.4M421.14 400V277.55l-6.12-13.41-6 13.41-.29 14h-14.89l-4.08-10.99-7.01 19.08.72 40.05h-8.15l-3.15-21.03-5.5 21.03-15.05-30.5-15.15 30.5-6.27-21.03-2.38 21.03h-8.15l-.73-40.05-6.33-19.08-4.27 11.49h-14.51l.29-14.5-6.52-13.41-6.37 13.41V400" class="st1"/><circle cx="202.85" cy="397.04" r="5.08" class="st1"/></svg>